<svg width="101" height="169" viewBox="0 0 101 169" fill="none" xmlns="http://www.w3.org/2000/svg">
<path d="M1 0H90C95.5228 0 100 4.47715 100 10V80C100 91.0457 91.0457 100 80 100H11C5.47715 100 1 95.5228 1 90V0Z" fill="url(#paint0_linear_85_203)"/>
<path d="M38.2757 61.2857H40.8471V63.8571H38.2757V61.2857ZM35.7042 61.2857H38.2757V63.8571H35.7042V61.2857ZM35.7042 63.8571H38.2757V66.4286H35.7042V63.8571ZM38.2757 63.8571H40.8471V66.4286H38.2757V63.8571ZM40.8471 63.8571H43.4185V66.4286H40.8471V63.8571ZM40.8471 61.2857H43.4185V63.8571H40.8471V61.2857ZM43.4185 61.2857H45.99V63.8571H43.4185V61.2857ZM45.99 61.2857H48.5614V63.8571H45.99V61.2857ZM45.99 63.8571H48.5614V66.4286H45.99V63.8571ZM43.4185 63.8571H45.99V66.4286H43.4185V63.8571ZM45.99 66.4286H48.5614V69H45.99V66.4286ZM48.5614 63.8571H51.1328V66.4286H48.5614V63.8571ZM48.5614 66.4286H51.1328V69H48.5614V66.4286ZM48.5614 79.2857H51.1328V81.8571H48.5614V79.2857ZM48.5614 81.8571H51.1328V84.4286H48.5614V81.8571ZM45.99 81.8571H48.5614V84.4286H45.99V81.8571ZM45.99 79.2857H48.5614V81.8571H45.99V79.2857ZM43.4185 81.8571H45.99V84.4286H43.4185V81.8571ZM45.99 84.4286H48.5614V87H45.99V84.4286ZM43.4185 84.4286H45.99V87H43.4185V84.4286ZM40.8471 84.4286H43.4185V87H40.8471V84.4286ZM40.8471 81.8571H43.4185V84.4286H40.8471V81.8571ZM38.2757 84.4286H40.8471V87H38.2757V84.4286ZM35.7042 84.4286H38.2757V87H35.7042V84.4286ZM35.7042 81.8571H38.2757V84.4286H35.7042V81.8571ZM38.2757 81.8571H40.8471V84.4286H38.2757V81.8571ZM38.2757 79.2857H40.8471V81.8571H38.2757V79.2857ZM35.7042 79.2857H38.2757V81.8571H35.7042V79.2857ZM33.1328 81.8571H35.7042V84.4286H33.1328V81.8571ZM33.1328 79.2857H35.7042V81.8571H33.1328V79.2857ZM33.1328 76.7143H35.7042V79.2857H33.1328V76.7143ZM33.1328 74.1429H35.7042V76.7143H33.1328V74.1429ZM33.1328 71.5714H35.7042V74.1429H33.1328V71.5714ZM33.1328 69H35.7042V71.5714H33.1328V69ZM33.1328 66.4286H35.7042V69H33.1328V66.4286ZM35.7042 66.4286H38.2757V69H35.7042V66.4286ZM33.1328 63.8571H35.7042V66.4286H33.1328V63.8571ZM38.2757 66.4286H40.8471V69H38.2757V66.4286ZM35.7042 69H38.2757V71.5714H35.7042V69ZM35.7042 71.5714H38.2757V74.1429H35.7042V71.5714ZM35.7042 74.1429H38.2757V76.7143H35.7042V74.1429ZM35.7042 76.7143H38.2757V79.2857H35.7042V76.7143ZM69.1395 66.4286H71.7109V69H69.1395V66.4286ZM66.5681 66.4286H69.1395V69H66.5681V66.4286ZM66.5681 63.8571H69.1395V66.4286H66.5681V63.8571ZM69.1395 63.8571H71.7109V66.4286H69.1395V63.8571ZM66.5681 61.2857H69.1395V63.8571H66.5681V61.2857ZM63.9967 61.2857H66.5681V63.8571H63.9967V61.2857ZM63.9967 63.8571H66.5681V66.4286H63.9967V63.8571ZM61.4252 63.8571H63.9967V66.4286H61.4252V63.8571ZM58.8538 63.8571H61.4252V66.4286H58.8538V63.8571ZM58.8538 61.2857H61.4252V63.8571H58.8538V61.2857ZM56.2824 61.2857H58.8538V63.8571H56.2824V61.2857ZM61.4252 61.2857H63.9967V63.8571H61.4252V61.2857ZM56.2824 63.8571H58.8538V66.4286H56.2824V63.8571ZM53.7109 63.8571H56.2824V66.4286H53.7109V63.8571ZM53.7109 66.4286H56.2824V69H53.7109V66.4286ZM56.2824 66.4286H58.8538V69H56.2824V66.4286ZM56.2824 69H58.8538V71.5714H56.2824V69ZM56.2824 71.5714H58.8538V74.1429H56.2824V71.5714ZM53.7109 71.5714H56.2824V74.1429H53.7109V71.5714ZM53.7109 69H56.2824V71.5714H53.7109V69ZM56.2824 74.1429H58.8538V76.7143H56.2824V74.1429ZM58.8538 74.1429H61.4252V76.7143H58.8538V74.1429ZM58.8538 71.5714H61.4252V74.1429H58.8538V71.5714ZM61.4252 71.5714H63.9967V74.1429H61.4252V71.5714ZM63.9967 71.5714H66.5681V74.1429H63.9967V71.5714ZM66.5681 71.5714H69.1395V74.1429H66.5681V71.5714ZM66.5681 74.1429H69.1395V76.7143H66.5681V74.1429ZM63.9967 74.1429H66.5681V76.7143H63.9967V74.1429ZM61.4252 74.1429H63.9967V76.7143H61.4252V74.1429ZM69.1395 74.1429H71.7109V76.7143H69.1395V74.1429ZM69.1395 76.7143H71.7109V79.2857H69.1395V76.7143ZM66.5681 76.7143H69.1395V79.2857H66.5681V76.7143ZM63.9967 81.8571H66.5681V84.4286H63.9967V81.8571ZM66.5681 81.8571H69.1395V84.4286H66.5681V81.8571ZM66.5681 79.2857H69.1395V81.8571H66.5681V79.2857ZM69.1395 79.2857H71.7109V81.8571H69.1395V79.2857ZM69.1395 81.8571H71.7109V84.4286H69.1395V81.8571ZM66.5681 84.4286H69.1395V87H66.5681V84.4286ZM63.9967 84.4286H66.5681V87H63.9967V84.4286ZM61.4252 84.4286H63.9967V87H61.4252V84.4286ZM58.8538 84.4286H61.4252V87H58.8538V84.4286ZM56.2824 84.4286H58.8538V87H56.2824V84.4286ZM56.2824 81.8571H58.8538V84.4286H56.2824V81.8571ZM58.8538 81.8571H61.4252V84.4286H58.8538V81.8571ZM61.4252 81.8571H63.9967V84.4286H61.4252V81.8571ZM53.7109 81.8571H56.2824V84.4286H53.7109V81.8571ZM53.7109 79.2857H56.2824V81.8571H53.7109V79.2857ZM56.2824 79.2857H58.8538V81.8571H56.2824V79.2857ZM89.7176 66.4286H92.2891V69H89.7176V66.4286ZM87.1462 66.4286H89.7176V69H87.1462V66.4286ZM87.1462 63.8571H89.7176V66.4286H87.1462V63.8571ZM89.7176 63.8571H92.2891V66.4286H89.7176V63.8571ZM87.1462 61.2857H89.7176V63.8571H87.1462V61.2857ZM84.5748 61.2857H87.1462V63.8571H84.5748V61.2857ZM84.5748 63.8571H87.1462V66.4286H84.5748V63.8571ZM82.0033 63.8571H84.5748V66.4286H82.0033V63.8571ZM79.4319 63.8571H82.0033V66.4286H79.4319V63.8571ZM79.4319 61.2857H82.0033V63.8571H79.4319V61.2857ZM76.8605 61.2857H79.4319V63.8571H76.8605V61.2857ZM82.0033 61.2857H84.5748V63.8571H82.0033V61.2857ZM76.8605 63.8571H79.4319V66.4286H76.8605V63.8571ZM74.2891 63.8571H76.8605V66.4286H74.2891V63.8571ZM74.2891 66.4286H76.8605V69H74.2891V66.4286ZM76.8605 66.4286H79.4319V69H76.8605V66.4286ZM76.8605 69H79.4319V71.5714H76.8605V69ZM76.8605 71.5714H79.4319V74.1429H76.8605V71.5714ZM74.2891 71.5714H76.8605V74.1429H74.2891V71.5714ZM74.2891 69H76.8605V71.5714H74.2891V69ZM76.8605 74.1429H79.4319V76.7143H76.8605V74.1429ZM79.4319 74.1429H82.0033V76.7143H79.4319V74.1429ZM79.4319 71.5714H82.0033V74.1429H79.4319V71.5714ZM82.0033 71.5714H84.5748V74.1429H82.0033V71.5714ZM84.5748 71.5714H87.1462V74.1429H84.5748V71.5714ZM87.1462 71.5714H89.7176V74.1429H87.1462V71.5714ZM87.1462 74.1429H89.7176V76.7143H87.1462V74.1429ZM84.5748 74.1429H87.1462V76.7143H84.5748V74.1429ZM82.0033 74.1429H84.5748V76.7143H82.0033V74.1429ZM89.7176 74.1429H92.2891V76.7143H89.7176V74.1429ZM89.7176 76.7143H92.2891V79.2857H89.7176V76.7143ZM87.1462 76.7143H89.7176V79.2857H87.1462V76.7143ZM84.5748 81.8571H87.1462V84.4286H84.5748V81.8571ZM87.1462 81.8571H89.7176V84.4286H87.1462V81.8571ZM87.1462 79.2857H89.7176V81.8571H87.1462V79.2857ZM89.7176 79.2857H92.2891V81.8571H89.7176V79.2857ZM89.7176 81.8571H92.2891V84.4286H89.7176V81.8571ZM87.1462 84.4286H89.7176V87H87.1462V84.4286ZM84.5748 84.4286H87.1462V87H84.5748V84.4286ZM82.0033 84.4286H84.5748V87H82.0033V84.4286ZM79.4319 84.4286H82.0033V87H79.4319V84.4286ZM76.8605 84.4286H79.4319V87H76.8605V84.4286ZM76.8605 81.8571H79.4319V84.4286H76.8605V81.8571ZM79.4319 81.8571H82.0033V84.4286H79.4319V81.8571ZM82.0033 81.8571H84.5748V84.4286H82.0033V81.8571ZM74.2891 81.8571H76.8605V84.4286H74.2891V81.8571ZM74.2891 79.2857H76.8605V81.8571H74.2891V79.2857ZM76.8605 79.2857H79.4319V81.8571H76.8605V79.2857Z" fill="white"/>
<path d="M16.2009 117.714H19.6295V121.143H16.2009V117.714ZM12.7723 117.714H16.2009V121.143H12.7723V117.714ZM12.7723 121.143H16.2009V124.571H12.7723V121.143ZM16.2009 121.143H19.6295V124.571H16.2009V121.143ZM19.6295 121.143H23.058V124.571H19.6295V121.143ZM19.6295 117.714H23.058V121.143H19.6295V117.714ZM23.058 117.714H26.4866V121.143H23.058V117.714ZM26.4866 117.714H29.9152V121.143H26.4866V117.714ZM26.4866 121.143H29.9152V124.571H26.4866V121.143ZM23.058 121.143H26.4866V124.571H23.058V121.143ZM26.4866 124.571H29.9152V128H26.4866V124.571ZM29.9152 121.143H33.3438V124.571H29.9152V121.143ZM29.9152 124.571H33.3438V128H29.9152V124.571ZM29.9152 141.714H33.3438V145.143H29.9152V141.714ZM29.9152 145.143H33.3438V148.571H29.9152V145.143ZM26.4866 145.143H29.9152V148.571H26.4866V145.143ZM26.4866 141.714H29.9152V145.143H26.4866V141.714ZM23.058 145.143H26.4866V148.571H23.058V145.143ZM26.4866 148.571H29.9152V152H26.4866V148.571ZM23.058 148.571H26.4866V152H23.058V148.571ZM19.6295 148.571H23.058V152H19.6295V148.571ZM19.6295 145.143H23.058V148.571H19.6295V145.143ZM16.2009 148.571H19.6295V152H16.2009V148.571ZM12.7723 148.571H16.2009V152H12.7723V148.571ZM12.7723 145.143H16.2009V148.571H12.7723V145.143ZM16.2009 145.143H19.6295V148.571H16.2009V145.143ZM16.2009 141.714H19.6295V145.143H16.2009V141.714ZM12.7723 141.714H16.2009V145.143H12.7723V141.714ZM9.34375 145.143H12.7723V148.571H9.34375V145.143ZM9.34375 141.714H12.7723V145.143H9.34375V141.714ZM9.34375 138.286H12.7723V141.714H9.34375V138.286ZM9.34375 134.857H12.7723V138.286H9.34375V134.857ZM9.34375 131.429H12.7723V134.857H9.34375V131.429ZM9.34375 128H12.7723V131.429H9.34375V128ZM9.34375 124.571H12.7723V128H9.34375V124.571ZM12.7723 124.571H16.2009V128H12.7723V124.571ZM9.34375 121.143H12.7723V124.571H9.34375V121.143ZM16.2009 124.571H19.6295V128H16.2009V124.571ZM12.7723 128H16.2009V131.429H12.7723V128ZM12.7723 131.429H16.2009V134.857H12.7723V131.429ZM12.7723 134.857H16.2009V138.286H12.7723V134.857ZM12.7723 138.286H16.2009V141.714H12.7723V138.286ZM57.3527 124.571H60.7812V128H57.3527V124.571ZM53.9241 124.571H57.3527V128H53.9241V124.571ZM53.9241 121.143H57.3527V124.571H53.9241V121.143ZM57.3527 121.143H60.7812V124.571H57.3527V121.143ZM53.9241 117.714H57.3527V121.143H53.9241V117.714ZM50.4955 117.714H53.9241V121.143H50.4955V117.714ZM50.4955 121.143H53.9241V124.571H50.4955V121.143ZM47.067 121.143H50.4955V124.571H47.067V121.143ZM43.6384 121.143H47.067V124.571H43.6384V121.143ZM43.6384 117.714H47.067V121.143H43.6384V117.714ZM40.2098 117.714H43.6384V121.143H40.2098V117.714ZM47.067 117.714H50.4955V121.143H47.067V117.714ZM40.2098 121.143H43.6384V124.571H40.2098V121.143ZM36.7812 121.143H40.2098V124.571H36.7812V121.143ZM36.7812 124.571H40.2098V128H36.7812V124.571ZM40.2098 124.571H43.6384V128H40.2098V124.571ZM40.2098 128H43.6384V131.429H40.2098V128ZM40.2098 131.429H43.6384V134.857H40.2098V131.429ZM36.7812 131.429H40.2098V134.857H36.7812V131.429ZM36.7812 128H40.2098V131.429H36.7812V128ZM40.2098 134.857H43.6384V138.286H40.2098V134.857ZM43.6384 134.857H47.067V138.286H43.6384V134.857ZM43.6384 131.429H47.067V134.857H43.6384V131.429ZM47.067 131.429H50.4955V134.857H47.067V131.429ZM50.4955 131.429H53.9241V134.857H50.4955V131.429ZM53.9241 131.429H57.3527V134.857H53.9241V131.429ZM53.9241 134.857H57.3527V138.286H53.9241V134.857ZM50.4955 134.857H53.9241V138.286H50.4955V134.857ZM47.067 134.857H50.4955V138.286H47.067V134.857ZM57.3527 134.857H60.7812V138.286H57.3527V134.857ZM57.3527 138.286H60.7812V141.714H57.3527V138.286ZM53.9241 138.286H57.3527V141.714H53.9241V138.286ZM50.4955 145.143H53.9241V148.571H50.4955V145.143ZM53.9241 145.143H57.3527V148.571H53.9241V145.143ZM53.9241 141.714H57.3527V145.143H53.9241V141.714ZM57.3527 141.714H60.7812V145.143H57.3527V141.714ZM57.3527 145.143H60.7812V148.571H57.3527V145.143ZM53.9241 148.571H57.3527V152H53.9241V148.571ZM50.4955 148.571H53.9241V152H50.4955V148.571ZM47.067 148.571H50.4955V152H47.067V148.571ZM43.6384 148.571H47.067V152H43.6384V148.571ZM40.2098 148.571H43.6384V152H40.2098V148.571ZM40.2098 145.143H43.6384V148.571H40.2098V145.143ZM43.6384 145.143H47.067V148.571H43.6384V145.143ZM47.067 145.143H50.4955V148.571H47.067V145.143ZM36.7812 145.143H40.2098V148.571H36.7812V145.143ZM36.7812 141.714H40.2098V145.143H36.7812V141.714ZM40.2098 141.714H43.6384V145.143H40.2098V141.714ZM84.7902 124.571H88.2188V128H84.7902V124.571ZM81.3616 124.571H84.7902V128H81.3616V124.571ZM81.3616 121.143H84.7902V124.571H81.3616V121.143ZM84.7902 121.143H88.2188V124.571H84.7902V121.143ZM81.3616 117.714H84.7902V121.143H81.3616V117.714ZM77.933 117.714H81.3616V121.143H77.933V117.714ZM77.933 121.143H81.3616V124.571H77.933V121.143ZM74.5045 121.143H77.933V124.571H74.5045V121.143ZM71.0759 121.143H74.5045V124.571H71.0759V121.143ZM71.0759 117.714H74.5045V121.143H71.0759V117.714ZM67.6473 117.714H71.0759V121.143H67.6473V117.714ZM74.5045 117.714H77.933V121.143H74.5045V117.714ZM67.6473 121.143H71.0759V124.571H67.6473V121.143ZM64.2188 121.143H67.6473V124.571H64.2188V121.143ZM64.2188 124.571H67.6473V128H64.2188V124.571ZM67.6473 124.571H71.0759V128H67.6473V124.571ZM67.6473 128H71.0759V131.429H67.6473V128ZM67.6473 131.429H71.0759V134.857H67.6473V131.429ZM64.2188 131.429H67.6473V134.857H64.2188V131.429ZM64.2188 128H67.6473V131.429H64.2188V128ZM67.6473 134.857H71.0759V138.286H67.6473V134.857ZM71.0759 134.857H74.5045V138.286H71.0759V134.857ZM71.0759 131.429H74.5045V134.857H71.0759V131.429ZM74.5045 131.429H77.933V134.857H74.5045V131.429ZM77.933 131.429H81.3616V134.857H77.933V131.429ZM81.3616 131.429H84.7902V134.857H81.3616V131.429ZM81.3616 134.857H84.7902V138.286H81.3616V134.857ZM77.933 134.857H81.3616V138.286H77.933V134.857ZM74.5045 134.857H77.933V138.286H74.5045V134.857ZM84.7902 134.857H88.2188V138.286H84.7902V134.857ZM84.7902 138.286H88.2188V141.714H84.7902V138.286ZM81.3616 138.286H84.7902V141.714H81.3616V138.286ZM77.933 145.143H81.3616V148.571H77.933V145.143ZM81.3616 145.143H84.7902V148.571H81.3616V145.143ZM81.3616 141.714H84.7902V145.143H81.3616V141.714ZM84.7902 141.714H88.2188V145.143H84.7902V141.714ZM84.7902 145.143H88.2188V148.571H84.7902V145.143ZM81.3616 148.571H84.7902V152H81.3616V148.571ZM77.933 148.571H81.3616V152H77.933V148.571ZM74.5045 148.571H77.933V152H74.5045V148.571ZM71.0759 148.571H74.5045V152H71.0759V148.571ZM67.6473 148.571H71.0759V152H67.6473V148.571ZM67.6473 145.143H71.0759V148.571H67.6473V145.143ZM71.0759 145.143H74.5045V148.571H71.0759V145.143ZM74.5045 145.143H77.933V148.571H74.5045V145.143ZM64.2188 145.143H67.6473V148.571H64.2188V145.143ZM64.2188 141.714H67.6473V145.143H64.2188V141.714ZM67.6473 141.714H71.0759V145.143H67.6473V141.714Z" fill="#F0F6FC"/>
<defs>
<linearGradient id="paint0_linear_85_203" x1="21.295" y1="-1.5" x2="67.5994" y2="99.6501" gradientUnits="userSpaceOnUse">
<stop stop-color="#DF5624"/>
<stop offset="1" stop-color="#FF9A26"/>
</linearGradient>
</defs>
</svg>
