<svg width="127" height="219" viewBox="0 0 127 219" fill="none" xmlns="http://www.w3.org/2000/svg">
<g clip-path="url(#clip0_85_16)">
<path d="M13.5 25C13.5 11.1929 24.6929 0 38.5 0H63.5V50H38.5C24.6929 50 13.5 38.8071 13.5 25V25Z" fill="#FF9A26"/>
<path d="M63.5 0H88.5C102.307 0 113.5 11.1929 113.5 25V25C113.5 38.8071 102.307 50 88.5 50H63.5V0Z" fill="#DF5624"/>
<path d="M13.5 75C13.5 61.1929 24.6929 50 38.5 50H63.5V100H38.5C24.6929 100 13.5 88.8071 13.5 75V75Z" fill="#DF5624"/>
<rect x="63.5" y="50" width="50" height="50" rx="25" fill="#FF9A26"/>
<path d="M13.5 125C13.5 111.193 24.6929 100 38.5 100H63.5V125C63.5 138.807 52.3071 150 38.5 150V150C24.6929 150 13.5 138.807 13.5 125V125Z" fill="#FF9A26"/>
</g>
<path d="M0.0625 167.714H3.49107V171.143H0.0625V167.714ZM3.49107 167.714H6.91964V171.143H3.49107V167.714ZM3.49107 171.143H6.91964V174.571H3.49107V171.143ZM3.49107 174.571H6.91964V178H3.49107V174.571ZM3.49107 178H6.91964V181.429H3.49107V178ZM0.0625 178H3.49107V181.429H0.0625V178ZM0.0625 174.571H3.49107V178H0.0625V174.571ZM0.0625 171.143H3.49107V174.571H0.0625V171.143ZM0.0625 181.429H3.49107V184.857H0.0625V181.429ZM0.0625 184.857H3.49107V188.286H0.0625V184.857ZM0.0625 188.286H3.49107V191.714H0.0625V188.286ZM3.49107 184.857H6.91964V188.286H3.49107V184.857ZM3.49107 181.429H6.91964V184.857H3.49107V181.429ZM3.49107 188.286H6.91964V191.714H3.49107V188.286ZM3.49107 191.714H6.91964V195.143H3.49107V191.714ZM0.0625 195.143H3.49107V198.571H0.0625V195.143ZM0.0625 191.714H3.49107V195.143H0.0625V191.714ZM0.0625 198.571H3.49107V202H0.0625V198.571ZM3.49107 198.571H6.91964V202H3.49107V198.571ZM3.49107 195.143H6.91964V198.571H3.49107V195.143ZM6.91964 167.714H10.3482V171.143H6.91964V167.714ZM10.3482 167.714H13.7768V171.143H10.3482V167.714ZM13.7768 167.714H17.2054V171.143H13.7768V167.714ZM17.2054 167.714H20.6339V171.143H17.2054V167.714ZM13.7768 171.143H17.2054V174.571H13.7768V171.143ZM10.3482 171.143H13.7768V174.571H10.3482V171.143ZM6.91964 171.143H10.3482V174.571H6.91964V171.143ZM6.91964 184.857H10.3482V188.286H6.91964V184.857ZM10.3482 181.429H13.7768V184.857H10.3482V181.429ZM6.91964 181.429H10.3482V184.857H6.91964V181.429ZM10.3482 184.857H13.7768V188.286H10.3482V184.857ZM17.2054 171.143H20.6339V174.571H17.2054V171.143ZM13.7768 181.429H17.2054V184.857H13.7768V181.429ZM13.7768 184.857H17.2054V188.286H13.7768V184.857ZM24.0625 167.714H30.9196V174.571H24.0625V167.714ZM24.0625 178H30.9196V202H24.0625V178ZM54.9464 174.571H58.375V178H54.9464V174.571ZM51.5179 174.571H54.9464V178H51.5179V174.571ZM48.0893 174.571H51.5179V178H48.0893V174.571ZM44.6607 174.571H48.0893V178H44.6607V174.571ZM41.2321 174.571H44.6607V178H41.2321V174.571ZM41.2321 178H44.6607V181.429H41.2321V178ZM44.6607 178H48.0893V181.429H44.6607V178ZM48.0893 178H51.5179V181.429H48.0893V178ZM51.5179 178H54.9464V181.429H51.5179V178ZM54.9464 178H58.375V181.429H54.9464V178ZM37.8036 174.571H41.2321V178H37.8036V174.571ZM37.8036 178H41.2321V181.429H37.8036V178ZM37.8036 181.429H41.2321V184.857H37.8036V181.429ZM34.375 181.429H37.8036V184.857H34.375V181.429ZM34.375 178H37.8036V181.429H34.375V178ZM34.375 184.857H37.8036V188.286H34.375V184.857ZM34.375 188.286H37.8036V191.714H34.375V188.286ZM37.8036 191.714H41.2321V195.143H37.8036V191.714ZM37.8036 188.286H41.2321V191.714H37.8036V188.286ZM37.8036 184.857H41.2321V188.286H37.8036V184.857ZM34.375 191.714H37.8036V195.143H34.375V191.714ZM37.8036 195.143H41.2321V198.571H37.8036V195.143ZM41.2321 195.143H44.6607V198.571H41.2321V195.143ZM44.6607 195.143H48.0893V198.571H44.6607V195.143ZM51.5179 195.143H54.9464V198.571H51.5179V195.143ZM54.9464 195.143H58.375V198.571H54.9464V195.143ZM54.9464 191.714H58.375V195.143H54.9464V191.714ZM51.5179 191.714H54.9464V195.143H51.5179V191.714ZM48.0893 191.714H51.5179V195.143H48.0893V191.714ZM44.6607 191.714H48.0893V195.143H44.6607V191.714ZM41.2321 191.714H44.6607V195.143H41.2321V191.714ZM51.5179 188.286H54.9464V191.714H51.5179V188.286ZM51.5179 184.857H54.9464V188.286H51.5179V184.857ZM51.5179 181.429H54.9464V184.857H51.5179V181.429ZM54.9464 181.429H58.375V184.857H54.9464V181.429ZM54.9464 184.857H58.375V188.286H54.9464V184.857ZM54.9464 188.286H58.375V191.714H54.9464V188.286ZM51.5179 198.571H54.9464V202H51.5179V198.571ZM51.5179 202H54.9464V205.429H51.5179V202ZM54.9464 202H58.375V205.429H54.9464V202ZM54.9464 198.571H58.375V202H54.9464V198.571ZM34.375 202H37.8036V205.429H34.375V202ZM37.8036 202H41.2321V205.429H37.8036V202ZM37.8036 205.429H41.2321V208.857H37.8036V205.429ZM41.2321 205.429H44.6607V208.857H41.2321V205.429ZM41.2321 202H44.6607V205.429H41.2321V202ZM44.6607 202H48.0893V205.429H44.6607V202ZM48.0893 202H51.5179V205.429H48.0893V202ZM51.5179 205.429H54.9464V208.857H51.5179V205.429ZM48.0893 205.429H51.5179V208.857H48.0893V205.429ZM44.6607 205.429H48.0893V208.857H44.6607V205.429ZM61.8125 178H65.2411V181.429H61.8125V178ZM61.8125 174.571H65.2411V178H61.8125V174.571ZM65.2411 174.571H68.6696V178H65.2411V174.571ZM65.2411 178H68.6696V181.429H65.2411V178ZM65.2411 181.429H68.6696V184.857H65.2411V181.429ZM65.2411 184.857H68.6696V188.286H65.2411V184.857ZM65.2411 188.286H68.6696V191.714H65.2411V188.286ZM61.8125 188.286H65.2411V191.714H61.8125V188.286ZM61.8125 184.857H65.2411V188.286H61.8125V184.857ZM61.8125 181.429H65.2411V184.857H61.8125V181.429ZM61.8125 191.714H65.2411V195.143H61.8125V191.714ZM65.2411 191.714H68.6696V195.143H65.2411V191.714ZM65.2411 195.143H68.6696V198.571H65.2411V195.143ZM65.2411 198.571H68.6696V202H65.2411V198.571ZM61.8125 198.571H65.2411V202H61.8125V198.571ZM61.8125 195.143H65.2411V198.571H61.8125V195.143ZM75.5268 198.571H78.9554V202H75.5268V198.571ZM78.9554 198.571H82.3839V202H78.9554V198.571ZM78.9554 195.143H82.3839V198.571H78.9554V195.143ZM78.9554 191.714H82.3839V195.143H78.9554V191.714ZM78.9554 188.286H82.3839V191.714H78.9554V188.286ZM78.9554 184.857H82.3839V188.286H78.9554V184.857ZM78.9554 181.429H82.3839V184.857H78.9554V181.429ZM78.9554 178H82.3839V181.429H78.9554V178ZM75.5268 184.857H78.9554V188.286H75.5268V184.857ZM75.5268 188.286H78.9554V191.714H75.5268V188.286ZM75.5268 191.714H78.9554V195.143H75.5268V191.714ZM75.5268 195.143H78.9554V198.571H75.5268V195.143ZM75.5268 181.429H78.9554V184.857H75.5268V181.429ZM68.6696 178H72.0982V181.429H68.6696V178ZM72.0982 178H75.5268V181.429H72.0982V178ZM75.5268 174.571H78.9554V178H75.5268V174.571ZM75.5268 178H78.9554V181.429H75.5268V178ZM72.0982 174.571H75.5268V178H72.0982V174.571ZM89.2411 198.571H92.6696V202H89.2411V198.571ZM92.6696 198.571H96.0982V202H92.6696V198.571ZM92.6696 195.143H96.0982V198.571H92.6696V195.143ZM92.6696 191.714H96.0982V195.143H92.6696V191.714ZM92.6696 188.286H96.0982V191.714H92.6696V188.286ZM92.6696 184.857H96.0982V188.286H92.6696V184.857ZM92.6696 181.429H96.0982V184.857H92.6696V181.429ZM92.6696 178H96.0982V181.429H92.6696V178ZM89.2411 184.857H92.6696V188.286H89.2411V184.857ZM89.2411 188.286H92.6696V191.714H89.2411V188.286ZM89.2411 191.714H92.6696V195.143H89.2411V191.714ZM89.2411 195.143H92.6696V198.571H89.2411V195.143ZM89.2411 181.429H92.6696V184.857H89.2411V181.429ZM82.3839 178H85.8125V181.429H82.3839V178ZM85.8125 178H89.2411V181.429H85.8125V178ZM89.2411 174.571H92.6696V178H89.2411V174.571ZM89.2411 178H92.6696V181.429H89.2411V178ZM85.8125 174.571H89.2411V178H85.8125V174.571ZM120.071 202H116.643V198.571H120.071V202ZM120.071 198.571H116.643V195.143H120.071V198.571ZM116.643 198.571H113.214V195.143H116.643V198.571ZM113.214 202H109.786V198.571H113.214V202ZM109.786 202H106.357V198.571H109.786V202ZM106.357 202H102.929V198.571H106.357V202ZM106.357 198.571H102.929V195.143H106.357V198.571ZM109.786 198.571H106.357V195.143H109.786V198.571ZM102.929 198.571H99.5V195.143H102.929V198.571ZM102.929 195.143H99.5V191.714H102.929V195.143ZM102.929 181.429H99.5V178H102.929V181.429ZM106.357 181.429H102.929V178H106.357V181.429ZM106.357 195.143H102.929V191.714H106.357V195.143ZM109.786 181.429H106.357V178H109.786V181.429ZM106.357 178H102.929V174.571H106.357V178ZM109.786 178H106.357V174.571H109.786V178ZM113.214 178H109.786V174.571H113.214V178ZM116.643 178H113.214V174.571H116.643V178ZM120.071 178H116.643V174.571H120.071V178ZM120.071 181.429H116.643V178H120.071V181.429ZM116.643 181.429H113.214V178H116.643V181.429ZM120.071 184.857H116.643V181.429H120.071V184.857ZM123.5 181.429H120.071V178H123.5V181.429ZM123.5 184.857H120.071V181.429H123.5V184.857ZM123.5 188.286H120.071V184.857H123.5V188.286ZM123.5 191.714H120.071V188.286H123.5V191.714ZM123.5 195.143H120.071V191.714H123.5V195.143ZM123.5 198.571H120.071V195.143H123.5V198.571ZM120.071 195.143H116.643V191.714H120.071V195.143ZM120.071 191.714H116.643V188.286H120.071V191.714ZM120.071 188.286H116.643V184.857H120.071V188.286ZM113.214 181.429H109.786V178H113.214V181.429ZM113.214 198.571H109.786V195.143H113.214V198.571ZM120.071 198.571H123.5V202H120.071V198.571ZM113.214 184.857H116.643V188.286H113.214V184.857ZM109.786 184.857H113.214V188.286H109.786V184.857ZM106.357 184.857H109.786V188.286H106.357V184.857ZM102.929 184.857H106.357V188.286H102.929V184.857ZM99.5 188.286H102.929V191.714H99.5V188.286ZM102.929 188.286H106.357V191.714H102.929V188.286ZM113.214 188.286H116.643V191.714H113.214V188.286ZM109.786 188.286H113.214V191.714H109.786V188.286ZM106.357 188.286H109.786V191.714H106.357V188.286Z" fill="#F0F6FC"/>
<defs>
<clipPath id="clip0_85_16">
<rect width="100" height="150" fill="white" transform="translate(13.5)"/>
</clipPath>
</defs>
</svg>
