<svg width="107" height="169" viewBox="0 0 107 169" fill="none" xmlns="http://www.w3.org/2000/svg">
<g clip-path="url(#clip0_85_41)">
<path d="M4.58602 6.29976C4.28697 3.08497 7.06778 0.433827 10.2646 0.885908L52.8068 6.90198C53.2667 6.96701 53.7334 6.96765 54.1934 6.90388L97.7506 0.866252C100.943 0.423729 103.714 3.07285 103.416 6.28202L96.3022 82.7514C96.1185 84.7256 94.7858 86.4047 92.9048 87.0317L55.5811 99.473C54.5548 99.8151 53.4452 99.8151 52.4189 99.473L15.0952 87.0317C13.2142 86.4047 11.8815 84.7256 11.6978 82.7514L4.58602 6.29976Z" fill="#DF5624"/>
<path d="M63.7857 15.4286H70.6429V22.2857H63.7857V15.4286ZM56.9286 15.4286H63.7857V22.2857H56.9286V15.4286ZM56.9286 22.2857H63.7857V29.1429H56.9286V22.2857ZM50.0714 22.2857H56.9286V29.1429H50.0714V22.2857ZM43.2143 22.2857H50.0714V29.1429H43.2143V22.2857ZM43.2143 15.4286H50.0714V22.2857H43.2143V15.4286ZM36.3571 15.4286H43.2143V22.2857H36.3571V15.4286ZM29.5 15.4286H36.3571V22.2857H29.5V15.4286ZM50.0714 15.4286H56.9286V22.2857H50.0714V15.4286ZM63.7857 22.2857H70.6429V29.1429H63.7857V22.2857ZM36.3571 22.2857H43.2143V29.1429H36.3571V22.2857ZM29.5 22.2857H36.3571V29.1429H29.5V22.2857ZM29.5 29.1429H36.3571V36H29.5V29.1429ZM29.5 36H36.3571V42.8571H29.5V36ZM36.3571 36H43.2143V42.8571H36.3571V36ZM36.3571 29.1429H43.2143V36H36.3571V29.1429ZM36.3571 42.8571H43.2143V49.7143H36.3571V42.8571ZM29.5 42.8571H36.3571V49.7143H29.5V42.8571ZM36.3571 49.7143H43.2143V56.5714H36.3571V49.7143ZM43.2143 49.7143H50.0714V56.5714H43.2143V49.7143ZM50.0714 49.7143H56.9286V56.5714H50.0714V49.7143ZM56.9286 49.7143H63.7857V56.5714H56.9286V49.7143ZM56.9286 42.8571H63.7857V49.7143H56.9286V42.8571ZM50.0714 42.8571H56.9286V49.7143H50.0714V42.8571ZM43.2143 42.8571H50.0714V49.7143H43.2143V42.8571ZM63.7857 49.7143H70.6429V56.5714H63.7857V49.7143ZM63.7857 56.5714H70.6429V63.4286H63.7857V56.5714ZM63.7857 63.4286H70.6429V70.2857H63.7857V63.4286ZM63.7857 70.2857H70.6429V77.1429H63.7857V70.2857ZM56.9286 63.4286H63.7857V70.2857H56.9286V63.4286ZM56.9286 56.5714H63.7857V63.4286H56.9286V56.5714ZM56.9286 70.2857H63.7857V77.1429H56.9286V70.2857ZM56.9286 77.1429H63.7857V84H56.9286V77.1429ZM50.0714 77.1429H56.9286V84H50.0714V77.1429ZM43.2143 77.1429H50.0714V84H43.2143V77.1429ZM43.2143 70.2857H50.0714V77.1429H43.2143V70.2857ZM36.3571 70.2857H43.2143V77.1429H36.3571V70.2857ZM36.3571 77.1429H43.2143V84H36.3571V77.1429ZM50.0714 70.2857H56.9286V77.1429H50.0714V70.2857ZM29.5 70.2857H36.3571V77.1429H29.5V70.2857ZM29.5 63.4286H36.3571V70.2857H29.5V63.4286ZM36.3571 63.4286H43.2143V70.2857H36.3571V63.4286Z" fill="white"/>
<path d="M0.34375 117.714H3.77232V121.143H0.34375V117.714ZM3.77232 117.714H7.20089V121.143H3.77232V117.714ZM3.77232 121.143H7.20089V124.571H3.77232V121.143ZM3.77232 124.571H7.20089V128H3.77232V124.571ZM3.77232 128H7.20089V131.429H3.77232V128ZM0.34375 124.571H3.77232V128H0.34375V124.571ZM0.34375 121.143H3.77232V124.571H0.34375V121.143ZM0.34375 128H3.77232V131.429H0.34375V128ZM0.34375 131.429H3.77232V134.857H0.34375V131.429ZM0.34375 138.286H3.77232V141.714H0.34375V138.286ZM0.34375 134.857H3.77232V138.286H0.34375V134.857ZM3.77232 131.429H7.20089V134.857H3.77232V131.429ZM3.77232 134.857H7.20089V138.286H3.77232V134.857ZM3.77232 138.286H7.20089V141.714H3.77232V138.286ZM3.77232 141.714H7.20089V145.143H3.77232V141.714ZM0.34375 141.714H3.77232V145.143H0.34375V141.714ZM0.34375 148.571H3.77232V152H0.34375V148.571ZM3.77232 148.571H7.20089V152H3.77232V148.571ZM3.77232 145.143H7.20089V148.571H3.77232V145.143ZM0.34375 145.143H3.77232V148.571H0.34375V145.143ZM20.9152 148.571H24.3438V152H20.9152V148.571ZM20.9152 145.143H24.3438V148.571H20.9152V145.143ZM20.9152 141.714H24.3438V145.143H20.9152V141.714ZM20.9152 138.286H24.3438V141.714H20.9152V138.286ZM20.9152 134.857H24.3438V138.286H20.9152V134.857ZM20.9152 131.429H24.3438V134.857H20.9152V131.429ZM20.9152 117.714H24.3438V121.143H20.9152V117.714ZM17.4866 117.714H20.9152V121.143H17.4866V117.714ZM17.4866 121.143H20.9152V124.571H17.4866V121.143ZM17.4866 124.571H20.9152V128H17.4866V124.571ZM17.4866 128H20.9152V131.429H17.4866V128ZM20.9152 128H24.3438V131.429H20.9152V128ZM20.9152 124.571H24.3438V128H20.9152V124.571ZM20.9152 121.143H24.3438V124.571H20.9152V121.143ZM17.4866 131.429H20.9152V134.857H17.4866V131.429ZM17.4866 145.143H20.9152V148.571H17.4866V145.143ZM17.4866 141.714H20.9152V145.143H17.4866V141.714ZM17.4866 138.286H20.9152V141.714H17.4866V138.286ZM17.4866 134.857H20.9152V138.286H17.4866V134.857ZM17.4866 148.571H20.9152V152H17.4866V148.571ZM14.058 131.429H17.4866V134.857H14.058V131.429ZM10.6295 131.429H14.058V134.857H10.6295V131.429ZM7.20089 131.429H10.6295V134.857H7.20089V131.429ZM7.20089 134.857H10.6295V138.286H7.20089V134.857ZM10.6295 134.857H14.058V138.286H10.6295V134.857ZM14.058 134.857H17.4866V138.286H14.058V134.857ZM27.7812 117.714H31.2098V121.143H27.7812V117.714ZM31.2098 117.714H34.6384V121.143H31.2098V117.714ZM34.6384 117.714H38.067V121.143H34.6384V117.714ZM38.067 117.714H41.4955V121.143H38.067V117.714ZM41.4955 117.714H44.9241V121.143H41.4955V117.714ZM44.9241 117.714H48.3527V121.143H44.9241V117.714ZM44.9241 121.143H48.3527V124.571H44.9241V121.143ZM41.4955 121.143H44.9241V124.571H41.4955V121.143ZM38.067 121.143H41.4955V124.571H38.067V121.143ZM34.6384 121.143H38.067V124.571H34.6384V121.143ZM31.2098 121.143H34.6384V124.571H31.2098V121.143ZM27.7812 121.143H31.2098V124.571H27.7812V121.143ZM34.6384 124.571H38.067V128H34.6384V124.571ZM34.6384 128H38.067V131.429H34.6384V128ZM34.6384 131.429H38.067V134.857H34.6384V131.429ZM34.6384 134.857H38.067V138.286H34.6384V134.857ZM34.6384 138.286H38.067V141.714H34.6384V138.286ZM34.6384 141.714H38.067V145.143H34.6384V141.714ZM38.067 138.286H41.4955V141.714H38.067V138.286ZM38.067 134.857H41.4955V138.286H38.067V134.857ZM38.067 131.429H41.4955V134.857H38.067V131.429ZM38.067 128H41.4955V131.429H38.067V128ZM38.067 124.571H41.4955V128H38.067V124.571ZM38.067 141.714H41.4955V145.143H38.067V141.714ZM38.067 145.143H41.4955V148.571H38.067V145.143ZM38.067 148.571H41.4955V152H38.067V148.571ZM34.6384 148.571H38.067V152H34.6384V148.571ZM34.6384 145.143H38.067V148.571H34.6384V145.143ZM51.7812 148.571H55.2098V152H51.7812V148.571ZM51.7812 145.143H55.2098V148.571H51.7812V145.143ZM51.7812 141.714H55.2098V145.143H51.7812V141.714ZM51.7812 138.286H55.2098V141.714H51.7812V138.286ZM51.7812 134.857H55.2098V138.286H51.7812V134.857ZM51.7812 131.429H55.2098V134.857H51.7812V131.429ZM55.2098 131.429H58.6384V134.857H55.2098V131.429ZM55.2098 128H58.6384V131.429H55.2098V128ZM55.2098 124.571H58.6384V128H55.2098V124.571ZM55.2098 121.143H58.6384V124.571H55.2098V121.143ZM51.7812 121.143H55.2098V124.571H51.7812V121.143ZM51.7812 117.714H55.2098V121.143H51.7812V117.714ZM51.7812 124.571H55.2098V128H51.7812V124.571ZM51.7812 128H55.2098V131.429H51.7812V128ZM55.2098 117.714H58.6384V121.143H55.2098V117.714ZM55.2098 134.857H58.6384V138.286H55.2098V134.857ZM55.2098 138.286H58.6384V141.714H55.2098V138.286ZM55.2098 141.714H58.6384V145.143H55.2098V141.714ZM55.2098 145.143H58.6384V148.571H55.2098V145.143ZM55.2098 148.571H58.6384V152H55.2098V148.571ZM58.6384 124.571H62.067V128H58.6384V124.571ZM58.6384 128H62.067V131.429H58.6384V128ZM62.067 128H65.4955V131.429H62.067V128ZM62.067 131.429H65.4955V134.857H62.067V131.429ZM65.4955 131.429H68.9241V134.857H65.4955V131.429ZM65.4955 134.857H68.9241V138.286H65.4955V134.857ZM68.9241 131.429H72.3527V134.857H68.9241V131.429ZM68.9241 128H72.3527V131.429H68.9241V128ZM72.3527 128H75.7812V131.429H72.3527V128ZM72.3527 124.571H75.7812V128H72.3527V124.571ZM75.7812 117.714H79.2098V121.143H75.7812V117.714ZM75.7812 121.143H79.2098V124.571H75.7812V121.143ZM75.7812 124.571H79.2098V128H75.7812V124.571ZM75.7812 128H79.2098V131.429H75.7812V128ZM75.7812 131.429H79.2098V134.857H75.7812V131.429ZM75.7812 134.857H79.2098V138.286H75.7812V134.857ZM75.7812 138.286H79.2098V141.714H75.7812V138.286ZM75.7812 141.714H79.2098V145.143H75.7812V141.714ZM75.7812 145.143H79.2098V148.571H75.7812V145.143ZM75.7812 148.571H79.2098V152H75.7812V148.571ZM79.2098 148.571H82.6384V152H79.2098V148.571ZM79.2098 145.143H82.6384V148.571H79.2098V145.143ZM79.2098 141.714H82.6384V145.143H79.2098V141.714ZM79.2098 138.286H82.6384V141.714H79.2098V138.286ZM79.2098 134.857H82.6384V138.286H79.2098V134.857ZM79.2098 131.429H82.6384V134.857H79.2098V131.429ZM79.2098 128H82.6384V131.429H79.2098V128ZM79.2098 124.571H82.6384V128H79.2098V124.571ZM79.2098 121.143H82.6384V124.571H79.2098V121.143ZM79.2098 117.714H82.6384V121.143H79.2098V117.714ZM58.6384 121.143H62.067V124.571H58.6384V121.143ZM62.067 124.571H65.4955V128H62.067V124.571ZM65.4955 128H68.9241V131.429H65.4955V128ZM68.9241 124.571H72.3527V128H68.9241V124.571ZM72.3527 121.143H75.7812V124.571H72.3527V121.143ZM86.0938 117.714H89.5223V121.143H86.0938V117.714ZM89.5223 117.714H92.9509V121.143H89.5223V117.714ZM89.5223 121.143H92.9509V124.571H89.5223V121.143ZM89.5223 124.571H92.9509V128H89.5223V124.571ZM89.5223 128H92.9509V131.429H89.5223V128ZM86.0938 128H89.5223V131.429H86.0938V128ZM86.0938 124.571H89.5223V128H86.0938V124.571ZM86.0938 121.143H89.5223V124.571H86.0938V121.143ZM86.0938 131.429H89.5223V134.857H86.0938V131.429ZM86.0938 134.857H89.5223V138.286H86.0938V134.857ZM86.0938 138.286H89.5223V141.714H86.0938V138.286ZM89.5223 134.857H92.9509V138.286H89.5223V134.857ZM89.5223 131.429H92.9509V134.857H89.5223V131.429ZM89.5223 138.286H92.9509V141.714H89.5223V138.286ZM89.5223 141.714H92.9509V145.143H89.5223V141.714ZM86.0938 145.143H89.5223V148.571H86.0938V145.143ZM86.0938 141.714H89.5223V145.143H86.0938V141.714ZM86.0938 148.571H89.5223V152H86.0938V148.571ZM89.5223 148.571H92.9509V152H89.5223V148.571ZM89.5223 145.143H92.9509V148.571H89.5223V145.143ZM92.9509 148.571H96.3795V152H92.9509V148.571ZM96.3795 148.571H99.808V152H96.3795V148.571ZM99.808 148.571H103.237V152H99.808V148.571ZM99.808 145.143H103.237V148.571H99.808V145.143ZM96.3795 145.143H99.808V148.571H96.3795V145.143ZM92.9509 145.143H96.3795V148.571H92.9509V145.143Z" fill="#F0F6FC"/>
</g>
<defs>
<clipPath id="clip0_85_41">
<rect width="107" height="169" fill="white"/>
</clipPath>
</defs>
</svg>
