<svg width="244" height="169" viewBox="0 0 244 169" fill="none" xmlns="http://www.w3.org/2000/svg">
<path d="M72 5C72 2.23858 74.2386 0 77 0H167C169.761 0 172 2.23858 172 5V70C172 86.5685 158.569 100 142 100H77C74.2386 100 72 97.7614 72 95V5Z" fill="url(#paint0_linear_82_23)"/>
<path d="M132.424 48.7143H135.853V52.1429H132.424V48.7143ZM128.996 48.7143H132.424V52.1429H128.996V48.7143ZM128.996 52.1429H132.424V55.5714H128.996V52.1429ZM128.996 55.5714H132.424V59H128.996V55.5714ZM128.996 59H132.424V62.4286H128.996V59ZM128.996 62.4286H132.424V65.8571H128.996V62.4286ZM132.424 62.4286H135.853V65.8571H132.424V62.4286ZM132.424 59H135.853V62.4286H132.424V59ZM132.424 55.5714H135.853V59H132.424V55.5714ZM132.424 52.1429H135.853V55.5714H132.424V52.1429ZM132.424 65.8571H135.853V69.2857H132.424V65.8571ZM132.424 69.2857H135.853V72.7143H132.424V69.2857ZM132.424 72.7143H135.853V76.1429H132.424V72.7143ZM132.424 76.1429H135.853V79.5714H132.424V76.1429ZM128.996 76.1429H132.424V79.5714H128.996V76.1429ZM128.996 79.5714H132.424V83H128.996V79.5714ZM125.567 79.5714H128.996V83H125.567V79.5714ZM125.567 76.1429H128.996V79.5714H125.567V76.1429ZM128.996 72.7143H132.424V76.1429H128.996V72.7143ZM128.996 69.2857H132.424V72.7143H128.996V69.2857ZM128.996 65.8571H132.424V69.2857H128.996V65.8571ZM122.138 79.5714H125.567V83H122.138V79.5714ZM118.71 79.5714H122.138V83H118.71V79.5714ZM115.281 76.1429H118.71V79.5714H115.281V76.1429ZM115.281 72.7143H118.71V76.1429H115.281V72.7143ZM118.71 72.7143H122.138V76.1429H118.71V72.7143ZM118.71 76.1429H122.138V79.5714H118.71V76.1429ZM122.138 76.1429H125.567V79.5714H122.138V76.1429ZM125.567 72.7143H128.996V76.1429H125.567V72.7143ZM159.853 55.5714H163.281V59H159.853V55.5714ZM156.424 55.5714H159.853V59H156.424V55.5714ZM156.424 52.1429H159.853V55.5714H156.424V52.1429ZM159.853 52.1429H163.281V55.5714H159.853V52.1429ZM156.424 48.7143H159.853V52.1429H156.424V48.7143ZM152.996 48.7143H156.424V52.1429H152.996V48.7143ZM152.996 52.1429H156.424V55.5714H152.996V52.1429ZM149.567 52.1429H152.996V55.5714H149.567V52.1429ZM146.138 52.1429H149.567V55.5714H146.138V52.1429ZM146.138 48.7143H149.567V52.1429H146.138V48.7143ZM142.71 48.7143H146.138V52.1429H142.71V48.7143ZM149.567 48.7143H152.996V52.1429H149.567V48.7143ZM142.71 52.1429H146.138V55.5714H142.71V52.1429ZM139.281 52.1429H142.71V55.5714H139.281V52.1429ZM139.281 55.5714H142.71V59H139.281V55.5714ZM142.71 55.5714H146.138V59H142.71V55.5714ZM142.71 59H146.138V62.4286H142.71V59ZM142.71 62.4286H146.138V65.8571H142.71V62.4286ZM139.281 62.4286H142.71V65.8571H139.281V62.4286ZM139.281 59H142.71V62.4286H139.281V59ZM142.71 65.8571H146.138V69.2857H142.71V65.8571ZM146.138 65.8571H149.567V69.2857H146.138V65.8571ZM146.138 62.4286H149.567V65.8571H146.138V62.4286ZM149.567 62.4286H152.996V65.8571H149.567V62.4286ZM152.996 62.4286H156.424V65.8571H152.996V62.4286ZM156.424 62.4286H159.853V65.8571H156.424V62.4286ZM156.424 65.8571H159.853V69.2857H156.424V65.8571ZM152.996 65.8571H156.424V69.2857H152.996V65.8571ZM149.567 65.8571H152.996V69.2857H149.567V65.8571ZM159.853 65.8571H163.281V69.2857H159.853V65.8571ZM159.853 69.2857H163.281V72.7143H159.853V69.2857ZM156.424 69.2857H159.853V72.7143H156.424V69.2857ZM152.996 76.1429H156.424V79.5714H152.996V76.1429ZM156.424 76.1429H159.853V79.5714H156.424V76.1429ZM156.424 72.7143H159.853V76.1429H156.424V72.7143ZM159.853 72.7143H163.281V76.1429H159.853V72.7143ZM159.853 76.1429H163.281V79.5714H159.853V76.1429ZM156.424 79.5714H159.853V83H156.424V79.5714ZM152.996 79.5714H156.424V83H152.996V79.5714ZM149.567 79.5714H152.996V83H149.567V79.5714ZM146.138 79.5714H149.567V83H146.138V79.5714ZM142.71 79.5714H146.138V83H142.71V79.5714ZM142.71 76.1429H146.138V79.5714H142.71V76.1429ZM146.138 76.1429H149.567V79.5714H146.138V76.1429ZM149.567 76.1429H152.996V79.5714H149.567V76.1429ZM139.281 76.1429H142.71V79.5714H139.281V76.1429ZM139.281 72.7143H142.71V76.1429H139.281V72.7143ZM142.71 72.7143H146.138V76.1429H142.71V72.7143Z" fill="#F0F6FC"/>
<path d="M17.3929 117.714H20.8214V121.143H17.3929V117.714ZM13.9643 117.714H17.3929V121.143H13.9643V117.714ZM13.9643 121.143H17.3929V124.571H13.9643V121.143ZM13.9643 124.571H17.3929V128H13.9643V124.571ZM13.9643 128H17.3929V131.429H13.9643V128ZM13.9643 131.429H17.3929V134.857H13.9643V131.429ZM17.3929 131.429H20.8214V134.857H17.3929V131.429ZM17.3929 128H20.8214V131.429H17.3929V128ZM17.3929 124.571H20.8214V128H17.3929V124.571ZM17.3929 121.143H20.8214V124.571H17.3929V121.143ZM17.3929 134.857H20.8214V138.286H17.3929V134.857ZM17.3929 138.286H20.8214V141.714H17.3929V138.286ZM17.3929 141.714H20.8214V145.143H17.3929V141.714ZM17.3929 145.143H20.8214V148.571H17.3929V145.143ZM13.9643 145.143H17.3929V148.571H13.9643V145.143ZM13.9643 148.571H17.3929V152H13.9643V148.571ZM10.5357 148.571H13.9643V152H10.5357V148.571ZM10.5357 145.143H13.9643V148.571H10.5357V145.143ZM13.9643 141.714H17.3929V145.143H13.9643V141.714ZM13.9643 138.286H17.3929V141.714H13.9643V138.286ZM13.9643 134.857H17.3929V138.286H13.9643V134.857ZM7.10714 148.571H10.5357V152H7.10714V148.571ZM3.67857 148.571H7.10714V152H3.67857V148.571ZM0.25 145.143H3.67857V148.571H0.25V145.143ZM0.25 141.714H3.67857V145.143H0.25V141.714ZM3.67857 141.714H7.10714V145.143H3.67857V141.714ZM3.67857 145.143H7.10714V148.571H3.67857V145.143ZM7.10714 145.143H10.5357V148.571H7.10714V145.143ZM10.5357 141.714H13.9643V145.143H10.5357V141.714ZM44.8214 152H41.3929V148.571H44.8214V152ZM44.8214 148.571H41.3929V145.143H44.8214V148.571ZM41.3929 148.571H37.9643V145.143H41.3929V148.571ZM37.9643 152H34.5357V148.571H37.9643V152ZM34.5357 152H31.1071V148.571H34.5357V152ZM31.1071 152H27.6786V148.571H31.1071V152ZM31.1071 148.571H27.6786V145.143H31.1071V148.571ZM34.5357 148.571H31.1071V145.143H34.5357V148.571ZM27.6786 148.571H24.25V145.143H27.6786V148.571ZM27.6786 145.143H24.25V141.714H27.6786V145.143ZM27.6786 131.429H24.25V128H27.6786V131.429ZM31.1071 131.429H27.6786V128H31.1071V131.429ZM31.1071 145.143H27.6786V141.714H31.1071V145.143ZM34.5357 131.429H31.1071V128H34.5357V131.429ZM31.1071 128H27.6786V124.571H31.1071V128ZM34.5357 128H31.1071V124.571H34.5357V128ZM37.9643 128H34.5357V124.571H37.9643V128ZM41.3929 128H37.9643V124.571H41.3929V128ZM44.8214 128H41.3929V124.571H44.8214V128ZM44.8214 131.429H41.3929V128H44.8214V131.429ZM41.3929 131.429H37.9643V128H41.3929V131.429ZM44.8214 134.857H41.3929V131.429H44.8214V134.857ZM48.25 131.429H44.8214V128H48.25V131.429ZM48.25 134.857H44.8214V131.429H48.25V134.857ZM48.25 138.286H44.8214V134.857H48.25V138.286ZM48.25 141.714H44.8214V138.286H48.25V141.714ZM48.25 145.143H44.8214V141.714H48.25V145.143ZM48.25 148.571H44.8214V145.143H48.25V148.571ZM44.8214 145.143H41.3929V141.714H44.8214V145.143ZM44.8214 141.714H41.3929V138.286H44.8214V141.714ZM44.8214 138.286H41.3929V134.857H44.8214V138.286ZM37.9643 131.429H34.5357V128H37.9643V131.429ZM37.9643 148.571H34.5357V145.143H37.9643V148.571ZM44.8214 148.571H48.25V152H44.8214V148.571ZM37.9643 134.857H41.3929V138.286H37.9643V134.857ZM34.5357 134.857H37.9643V138.286H34.5357V134.857ZM31.1071 134.857H34.5357V138.286H31.1071V134.857ZM27.6786 134.857H31.1071V138.286H27.6786V134.857ZM24.25 138.286H27.6786V141.714H24.25V138.286ZM27.6786 138.286H31.1071V141.714H27.6786V138.286ZM37.9643 138.286H41.3929V141.714H37.9643V138.286ZM34.5357 138.286H37.9643V141.714H34.5357V138.286ZM31.1071 138.286H34.5357V141.714H31.1071V138.286ZM51.6875 124.571H55.1161V128H51.6875V124.571ZM55.1161 124.571H58.5446V128H55.1161V124.571ZM55.1161 128H58.5446V131.429H55.1161V128ZM55.1161 131.429H58.5446V134.857H55.1161V131.429ZM55.1161 134.857H58.5446V138.286H55.1161V134.857ZM55.1161 138.286H58.5446V141.714H55.1161V138.286ZM51.6875 138.286H55.1161V141.714H51.6875V138.286ZM51.6875 134.857H55.1161V138.286H51.6875V134.857ZM51.6875 131.429H55.1161V134.857H51.6875V131.429ZM51.6875 128H55.1161V131.429H51.6875V128ZM55.1161 141.714H58.5446V145.143H55.1161V141.714ZM58.5446 141.714H61.9732V145.143H58.5446V141.714ZM58.5446 145.143H61.9732V148.571H58.5446V145.143ZM61.9732 145.143H65.4018V148.571H61.9732V145.143ZM61.9732 148.571H65.4018V152H61.9732V148.571ZM65.4018 145.143H68.8304V148.571H65.4018V145.143ZM65.4018 141.714H68.8304V145.143H65.4018V141.714ZM68.8304 141.714H72.2589V145.143H68.8304V141.714ZM68.8304 138.286H72.2589V141.714H68.8304V138.286ZM68.8304 134.857H72.2589V138.286H68.8304V134.857ZM68.8304 131.429H72.2589V134.857H68.8304V131.429ZM68.8304 128H72.2589V131.429H68.8304V128ZM68.8304 124.571H72.2589V128H68.8304V124.571ZM72.2589 134.857H75.6875V138.286H72.2589V134.857ZM72.2589 138.286H75.6875V141.714H72.2589V138.286ZM72.2589 131.429H75.6875V134.857H72.2589V131.429ZM72.2589 128H75.6875V131.429H72.2589V128ZM72.2589 124.571H75.6875V128H72.2589V124.571ZM61.9732 141.714H65.4018V145.143H61.9732V141.714ZM58.5446 138.286H61.9732V141.714H58.5446V138.286ZM65.4018 138.286H68.8304V141.714H65.4018V138.286ZM99.6964 152H96.2679V148.571H99.6964V152ZM99.6964 148.571H96.2679V145.143H99.6964V148.571ZM96.2679 148.571H92.8393V145.143H96.2679V148.571ZM92.8393 152H89.4107V148.571H92.8393V152ZM89.4107 152H85.9821V148.571H89.4107V152ZM85.9821 152H82.5536V148.571H85.9821V152ZM85.9821 148.571H82.5536V145.143H85.9821V148.571ZM89.4107 148.571H85.9821V145.143H89.4107V148.571ZM82.5536 148.571H79.125V145.143H82.5536V148.571ZM82.5536 145.143H79.125V141.714H82.5536V145.143ZM82.5536 131.429H79.125V128H82.5536V131.429ZM85.9821 131.429H82.5536V128H85.9821V131.429ZM85.9821 145.143H82.5536V141.714H85.9821V145.143ZM89.4107 131.429H85.9821V128H89.4107V131.429ZM85.9821 128H82.5536V124.571H85.9821V128ZM89.4107 128H85.9821V124.571H89.4107V128ZM92.8393 128H89.4107V124.571H92.8393V128ZM96.2679 128H92.8393V124.571H96.2679V128ZM99.6964 128H96.2679V124.571H99.6964V128ZM99.6964 131.429H96.2679V128H99.6964V131.429ZM96.2679 131.429H92.8393V128H96.2679V131.429ZM99.6964 134.857H96.2679V131.429H99.6964V134.857ZM103.125 131.429H99.6964V128H103.125V131.429ZM103.125 134.857H99.6964V131.429H103.125V134.857ZM103.125 138.286H99.6964V134.857H103.125V138.286ZM103.125 141.714H99.6964V138.286H103.125V141.714ZM103.125 145.143H99.6964V141.714H103.125V145.143ZM103.125 148.571H99.6964V145.143H103.125V148.571ZM99.6964 145.143H96.2679V141.714H99.6964V145.143ZM99.6964 141.714H96.2679V138.286H99.6964V141.714ZM99.6964 138.286H96.2679V134.857H99.6964V138.286ZM92.8393 131.429H89.4107V128H92.8393V131.429ZM92.8393 148.571H89.4107V145.143H92.8393V148.571ZM99.6964 148.571H103.125V152H99.6964V148.571ZM92.8393 134.857H96.2679V138.286H92.8393V134.857ZM89.4107 134.857H92.8393V138.286H89.4107V134.857ZM85.9821 134.857H89.4107V138.286H85.9821V134.857ZM82.5536 134.857H85.9821V138.286H82.5536V134.857ZM79.125 138.286H82.5536V141.714H79.125V138.286ZM82.5536 138.286H85.9821V141.714H82.5536V138.286ZM92.8393 138.286H96.2679V141.714H92.8393V138.286ZM89.4107 138.286H92.8393V141.714H89.4107V138.286ZM85.9821 138.286H89.4107V141.714H85.9821V138.286ZM127.134 124.571H130.562V128H127.134V124.571ZM123.705 124.571H127.134V128H123.705V124.571ZM123.705 121.143H127.134V124.571H123.705V121.143ZM127.134 121.143H130.562V124.571H127.134V121.143ZM123.705 117.714H127.134V121.143H123.705V117.714ZM120.277 117.714H123.705V121.143H120.277V117.714ZM120.277 121.143H123.705V124.571H120.277V121.143ZM116.848 121.143H120.277V124.571H116.848V121.143ZM113.42 121.143H116.848V124.571H113.42V121.143ZM113.42 117.714H116.848V121.143H113.42V117.714ZM109.991 117.714H113.42V121.143H109.991V117.714ZM116.848 117.714H120.277V121.143H116.848V117.714ZM109.991 121.143H113.42V124.571H109.991V121.143ZM106.562 121.143H109.991V124.571H106.562V121.143ZM106.562 124.571H109.991V128H106.562V124.571ZM109.991 124.571H113.42V128H109.991V124.571ZM109.991 128H113.42V131.429H109.991V128ZM109.991 131.429H113.42V134.857H109.991V131.429ZM106.562 131.429H109.991V134.857H106.562V131.429ZM106.562 128H109.991V131.429H106.562V128ZM109.991 134.857H113.42V138.286H109.991V134.857ZM113.42 134.857H116.848V138.286H113.42V134.857ZM113.42 131.429H116.848V134.857H113.42V131.429ZM116.848 131.429H120.277V134.857H116.848V131.429ZM120.277 131.429H123.705V134.857H120.277V131.429ZM123.705 131.429H127.134V134.857H123.705V131.429ZM123.705 134.857H127.134V138.286H123.705V134.857ZM120.277 134.857H123.705V138.286H120.277V134.857ZM116.848 134.857H120.277V138.286H116.848V134.857ZM127.134 134.857H130.562V138.286H127.134V134.857ZM127.134 138.286H130.562V141.714H127.134V138.286ZM123.705 138.286H127.134V141.714H123.705V138.286ZM120.277 145.143H123.705V148.571H120.277V145.143ZM123.705 145.143H127.134V148.571H123.705V145.143ZM123.705 141.714H127.134V145.143H123.705V141.714ZM127.134 141.714H130.562V145.143H127.134V141.714ZM127.134 145.143H130.562V148.571H127.134V145.143ZM123.705 148.571H127.134V152H123.705V148.571ZM120.277 148.571H123.705V152H120.277V148.571ZM116.848 148.571H120.277V152H116.848V148.571ZM113.42 148.571H116.848V152H113.42V148.571ZM109.991 148.571H113.42V152H109.991V148.571ZM109.991 145.143H113.42V148.571H109.991V145.143ZM113.42 145.143H116.848V148.571H113.42V145.143ZM116.848 145.143H120.277V148.571H116.848V145.143ZM106.562 145.143H109.991V148.571H106.562V145.143ZM106.562 141.714H109.991V145.143H106.562V141.714ZM109.991 141.714H113.42V145.143H109.991V141.714ZM140.857 124.571H144.286V128H140.857V124.571ZM137.429 124.571H140.857V128H137.429V124.571ZM137.429 128H140.857V131.429H137.429V128ZM140.857 128H144.286V131.429H140.857V128ZM144.286 124.571H147.714V128H144.286V124.571ZM147.714 124.571H151.143V128H147.714V124.571ZM151.143 124.571H154.571V128H151.143V124.571ZM151.143 128H154.571V131.429H151.143V128ZM147.714 128H151.143V131.429H147.714V128ZM154.571 128H158V131.429H154.571V128ZM154.571 131.429H158V134.857H154.571V131.429ZM154.571 141.714H158V145.143H154.571V141.714ZM154.571 145.143H158V148.571H154.571V145.143ZM151.143 145.143H154.571V148.571H151.143V145.143ZM151.143 141.714H154.571V145.143H151.143V141.714ZM151.143 131.429H154.571V134.857H151.143V131.429ZM147.714 145.143H151.143V148.571H147.714V145.143ZM151.143 148.571H154.571V152H151.143V148.571ZM147.714 148.571H151.143V152H147.714V148.571ZM144.286 148.571H147.714V152H144.286V148.571ZM140.857 148.571H144.286V152H140.857V148.571ZM137.429 148.571H140.857V152H137.429V148.571ZM137.429 145.143H140.857V148.571H137.429V145.143ZM140.857 145.143H144.286V148.571H140.857V145.143ZM137.429 141.714H140.857V145.143H137.429V141.714ZM134 145.143H137.429V148.571H134V145.143ZM134 141.714H137.429V145.143H134V141.714ZM134 138.286H137.429V141.714H134V138.286ZM134 134.857H137.429V138.286H134V134.857ZM134 131.429H137.429V134.857H134V131.429ZM134 128H137.429V131.429H134V128ZM137.429 131.429H140.857V134.857H137.429V131.429ZM137.429 134.857H140.857V138.286H137.429V134.857ZM137.429 138.286H140.857V141.714H137.429V138.286ZM144.286 145.143H147.714V148.571H144.286V145.143ZM144.286 128H147.714V131.429H144.286V128ZM161.438 128H164.866V131.429H161.438V128ZM161.438 124.571H164.866V128H161.438V124.571ZM164.866 124.571H168.295V128H164.866V124.571ZM164.866 128H168.295V131.429H164.866V128ZM164.866 131.429H168.295V134.857H164.866V131.429ZM164.866 134.857H168.295V138.286H164.866V134.857ZM164.866 138.286H168.295V141.714H164.866V138.286ZM161.438 138.286H164.866V141.714H161.438V138.286ZM161.438 134.857H164.866V138.286H161.438V134.857ZM161.438 131.429H164.866V134.857H161.438V131.429ZM161.438 141.714H164.866V145.143H161.438V141.714ZM164.866 141.714H168.295V145.143H164.866V141.714ZM164.866 145.143H168.295V148.571H164.866V145.143ZM164.866 148.571H168.295V152H164.866V148.571ZM161.438 148.571H164.866V152H161.438V148.571ZM161.438 145.143H164.866V148.571H161.438V145.143ZM168.295 128H171.723V131.429H168.295V128ZM171.723 128H175.152V131.429H171.723V128ZM175.152 128H178.58V131.429H175.152V128ZM175.152 124.571H178.58V128H175.152V124.571ZM171.723 124.571H175.152V128H171.723V124.571ZM168.295 131.429H171.723V134.857H168.295V131.429ZM178.58 128H182.009V131.429H178.58V128ZM175.152 131.429H178.58V134.857H175.152V131.429ZM185.438 117.714H192.295V124.571H185.438V117.714ZM185.438 128H192.295V152H185.438V128ZM195.75 128H199.179V131.429H195.75V128ZM195.75 124.571H199.179V128H195.75V124.571ZM199.179 124.571H202.607V128H199.179V124.571ZM199.179 128H202.607V131.429H199.179V128ZM199.179 131.429H202.607V134.857H199.179V131.429ZM199.179 134.857H202.607V138.286H199.179V134.857ZM199.179 138.286H202.607V141.714H199.179V138.286ZM195.75 138.286H199.179V141.714H195.75V138.286ZM195.75 134.857H199.179V138.286H195.75V134.857ZM195.75 131.429H199.179V134.857H195.75V131.429ZM195.75 141.714H199.179V145.143H195.75V141.714ZM199.179 141.714H202.607V145.143H199.179V141.714ZM199.179 145.143H202.607V148.571H199.179V145.143ZM199.179 148.571H202.607V152H199.179V148.571ZM195.75 148.571H199.179V152H195.75V148.571ZM195.75 145.143H199.179V148.571H195.75V145.143ZM212.893 148.571H216.321V152H212.893V148.571ZM216.321 145.143H219.75V148.571H216.321V145.143ZM216.321 141.714H219.75V145.143H216.321V141.714ZM216.321 138.286H219.75V141.714H216.321V138.286ZM216.321 134.857H219.75V138.286H216.321V134.857ZM216.321 131.429H219.75V134.857H216.321V131.429ZM216.321 128H219.75V131.429H216.321V128ZM212.893 134.857H216.321V138.286H212.893V134.857ZM212.893 138.286H216.321V141.714H212.893V138.286ZM212.893 141.714H216.321V145.143H212.893V141.714ZM212.893 145.143H216.321V148.571H212.893V145.143ZM212.893 131.429H216.321V134.857H212.893V131.429ZM202.607 128H206.036V131.429H202.607V128ZM206.036 128H209.464V131.429H206.036V128ZM209.464 128H212.893V131.429H209.464V128ZM209.464 124.571H212.893V128H209.464V124.571ZM212.893 124.571H216.321V128H212.893V124.571ZM212.893 128H216.321V131.429H212.893V128ZM206.036 124.571H209.464V128H206.036V124.571ZM202.607 148.571H206.036V152H202.607V148.571ZM206.036 148.571H209.464V152H206.036V148.571ZM209.464 148.571H212.893V152H209.464V148.571ZM209.464 145.143H212.893V148.571H209.464V145.143ZM206.036 145.143H209.464V148.571H206.036V145.143ZM202.607 145.143H206.036V148.571H202.607V145.143ZM195.75 152H199.179V155.429H195.75V152ZM199.179 152H202.607V155.429H199.179V152ZM199.179 155.429H202.607V158.857H199.179V155.429ZM195.75 155.429H199.179V158.857H195.75V155.429ZM236.902 145.143H240.33V148.571H236.902V145.143ZM236.902 148.571H240.33V152H236.902V148.571ZM233.473 148.571H236.902V152H233.473V148.571ZM233.473 145.143H236.902V148.571H233.473V145.143ZM230.045 148.571H233.473V152H230.045V148.571ZM230.045 145.143H233.473V148.571H230.045V145.143ZM226.616 145.143H230.045V148.571H226.616V145.143ZM226.616 141.714H230.045V145.143H226.616V141.714ZM226.616 138.286H230.045V141.714H226.616V138.286ZM226.616 134.857H230.045V138.286H226.616V134.857ZM226.616 131.429H230.045V134.857H226.616V131.429ZM226.616 128H230.045V131.429H226.616V128ZM230.045 138.286H233.473V141.714H230.045V138.286ZM230.045 141.714H233.473V145.143H230.045V141.714ZM230.045 134.857H233.473V138.286H230.045V134.857ZM230.045 131.429H233.473V134.857H230.045V131.429ZM230.045 117.714H233.473V121.143H230.045V117.714ZM230.045 121.143H233.473V124.571H230.045V121.143ZM230.045 124.571H233.473V128H230.045V124.571ZM230.045 128H233.473V131.429H230.045V128ZM226.616 124.571H230.045V128H226.616V124.571ZM223.188 128H226.616V131.429H223.188V128ZM233.473 128H236.902V131.429H233.473V128ZM236.902 128H240.33V131.429H236.902V128ZM226.616 121.143H230.045V124.571H226.616V121.143ZM223.188 131.429H226.616V134.857H223.188V131.429ZM233.473 131.429H236.902V134.857H233.473V131.429ZM236.902 131.429H240.33V134.857H236.902V131.429Z" fill="#F0F6FC"/>
<defs>
<linearGradient id="paint0_linear_82_23" x1="92.5" y1="-1.5" x2="138.5" y2="100" gradientUnits="userSpaceOnUse">
<stop stop-color="#FF9A26"/>
<stop offset="1" stop-color="#DF5624"/>
</linearGradient>
</defs>
</svg>
